HIERARCHY
ROOT Hips
{
    OFFSET   0.000000   0.000000   0.000000
    CHANNELS 6 Xposition Yposition Zposition Xrotation Yrotation Zrotation
    JOINT LeftUpLeg
    {
        OFFSET   0.078795   0.000000   0.000000
        CHANNELS 3 Xrotation Yrotation Zrotation
        JOINT LeftLeg
        {
            OFFSET   0.000000  -0.427566   0.000000
            CHANNELS 3 Xrotation Yrotation Zrotation
            JOINT LeftFoot
            {
                OFFSET   0.000000  -0.394685   0.000000
                CHANNELS 3 Xrotation Yrotation Zrotation
                JOINT LeftToeBase
                {
                    OFFSET   0.000000  -0.039971   0.149173
                    CHANNELS 3 Xrotation Yrotation Zrotation
                }
            }
        }
    }
    JOINT RightUpLeg
    {
        OFFSET  -0.078795   0.000000   0.000000
        CHANNELS 3 Xrotation Yrotation Zrotation
        JOINT RightLeg
        {
            OFFSET   0.000000  -0.427566   0.000000
            CHANNELS 3 Xrotation Yrotation Zrotation
            JOINT RightFoot
            {
                OFFSET   0.000000  -0.394685   0.000000
                CHANNELS 3 Xrotation Yrotation Zrotation
                JOINT RightToeBase
                {
                    OFFSET   0.000000  -0.039971   0.149173
                    CHANNELS 3 Xrotation Yrotation Zrotation
                }
            }
        }
    }
    JOINT Spine
    {
        OFFSET   0.000000   0.001000   0.000000
        CHANNELS 3 Xrotation Yrotation Zrotation
        JOINT Spine1
        {
            OFFSET   0.000000   0.211086   0.000000
            CHANNELS 3 Xrotation Yrotation Zrotation
            JOINT Neck
            {
                OFFSET   0.000000   0.158868   0.000000
                CHANNELS 3 Xrotation Yrotation Zrotation
            }
            JOINT LeftShoulder
            {
                OFFSET   0.000000   0.158868   0.000000
                CHANNELS 3 Xrotation Yrotation Zrotation
                JOINT LeftArm
                {
                    OFFSET   0.189194  -0.000001   0.000000
                    CHANNELS 3 Xrotation Yrotation Zrotation
                    JOINT LeftForeArm
                    {
                        OFFSET   0.272680  -0.000001   0.000000
                        CHANNELS 3 Xrotation Yrotation Zrotation
                        JOINT LeftHand
                        {
                            OFFSET   0.258023  -0.000001   0.000000
                            CHANNELS 3 Xrotation Yrotation Zrotation
                        }
                    }
                }
            }
            JOINT RightShoulder
            {
                OFFSET   0.000000   0.158868   0.000000
                CHANNELS 3 Xrotation Yrotation Zrotation
                JOINT RightArm
                {
                    OFFSET  -0.189194  -0.000001   0.000000
                    CHANNELS 3 Xrotation Yrotation Zrotation
                    JOINT RightForeArm
                    {
                        OFFSET  -0.272680  -0.000001   0.000000
                        CHANNELS 3 Xrotation Yrotation Zrotation
                        JOINT RightHand
                        {
                            OFFSET  -0.258023  -0.000001   0.000000
                            CHANNELS 3 Xrotation Yrotation Zrotation
                        }
                    }
                }
            }
        }
    }
}
MOTION
Frames: 5
Frame Time:   0.016667
 -1.436446   0.902043  -0.223662 -88.812500 -89.781700 -67.098700 -75.333900  -4.853100  63.323200  18.359900   0.000000   0.000000  14.885400  -5.568900 -29.942500  -2.110000   0.000000   0.000000  -4.725500  -7.744900 -18.690700  16.954500   0.000000   0.000000 -18.090500 -16.576700 -12.527300   3.451800   0.000000   0.000000  -1.838800  -0.399600   3.801600   2.900900  -6.052600 -28.178700  36.574800  34.188400  -7.230600  12.180300  -9.371800  27.736500 -56.412800  24.985100  -3.684200 -179.997100 -85.885500 -179.996900 -10.001500   6.504300  28.819700  25.058300  -9.756500 -24.225500   7.970000 -25.401900  56.112000  -0.000300  50.451100   0.000100  -7.307600  23.211100  11.715100
 -1.439255   0.901741  -0.226329  91.283800 -89.548100 112.961800 -73.836400   0.375800  64.341300  23.372800   0.000000   0.000000  18.330000  -8.898900 -31.248000  -1.640100   0.000000   0.000000  -5.274500  -8.594300 -18.813000  16.594400   0.000000   0.000000 -18.103300 -15.004800 -11.563100   3.401300   0.000000   0.000000  -2.052500  -0.934500   3.198800   2.443300  -5.941000 -26.511600  35.523600  33.631500  -6.808300  12.391800  -9.158200  27.658500 -53.787300  26.291600  -6.582400 -179.998700 -80.735900 -179.998500  -8.602800   9.036400  22.815300  25.706300 -10.331400 -23.789000  10.146100 -28.713400  60.810300  -0.000200  47.118100   0.000100  -7.269700  22.239900  12.012300
 -1.441651   0.900747  -0.227863 109.275900 -88.965100 130.707100 -72.824600   5.887200  65.368800  28.840200   0.000000   0.000000  17.817000  -8.095900 -33.549000  -1.739600   0.000000   0.000000  -5.869800  -9.059200 -18.774600  16.867000   0.000000   0.000000 -18.316900 -13.622000 -10.208300   3.180200   0.000000   0.000000  -2.202900  -1.523000   2.292500   2.436800  -5.715300 -23.890500  34.678800  33.088800  -6.752600  12.354800  -8.922100  26.715800 -51.141500  27.007800  -9.494200 -179.999200 -75.959700 -179.998900  -8.158400  10.802000  17.510000  25.813800 -10.772500 -23.627700  11.943800 -30.863000  65.010100  -0.000200  43.309400   0.000100 -12.578100  21.196100  14.976500
 -1.443868   0.899922  -0.228366 115.081000 -88.511100 136.186000 -70.992500  11.447300  65.662200  33.810900   0.000000   0.000000  14.069600  -4.561900 -33.883300  -1.691600   0.000000   0.000000  -6.240100  -9.169700 -18.611600  17.179700   0.000000   0.000000 -18.426800 -12.782900  -9.483900   2.950700   0.000000   0.000000  -2.403800  -1.880800   1.947600   2.530100  -5.635100 -22.363500  33.864200  32.439400  -6.250200  12.586300  -8.809100  26.218600 -48.405900  27.306300 -12.326500 -179.999400 -71.958800 -179.999100  -8.901000  11.177200  14.905900  26.003700 -11.457200 -23.240500  12.779000 -31.056300  69.161900  -0.000200  38.646900   0.000100 -19.308400  21.069100  18.256600
 -1.445666   0.898962  -0.227904 107.195200 -88.386900 128.036500 -67.955700  16.829100  64.381700  37.991500   0.000000   0.000000  10.136900  -0.206500 -33.137200  -1.540100   0.000000   0.000000  -6.509200  -9.323200 -18.560500  17.608500   0.000000   0.000000 -18.682400 -12.342100  -8.673500   2.775000   0.000000   0.000000  -2.496400  -2.216700   1.776300   2.425800  -5.570700 -21.221000  33.284500  31.693000  -5.757600  13.028700  -8.909300  25.887100 -45.634900  27.124300 -15.394000 -179.999500 -68.835100 -179.999200  -9.063800  11.167100  13.887600  25.993500 -12.351200 -22.727700  13.390800 -29.781800  72.920300  -0.000100  33.875700   0.000000 -27.132200  20.378400  22.165400
